<?xml version="1.0" standalone="no"?><!DOCTYPE svg PUBLIC "-//W3C//DTD SVG 1.1//EN"
  "http://www.w3.org/Graphics/SVG/1.1/DTD/svg11.dtd">
<svg t="1709957813091" class="icon" viewBox="0 0 1024 1024" version="1.1" xmlns="http://www.w3.org/2000/svg" p-id="1448"
     xmlns:xlink="http://www.w3.org/1999/xlink" width="200" height="200">
  <path
    d="M960 876.8L595.2 512 960 147.2c12.8-12.8 19.2-25.6 19.2-38.4 0-12.8-6.4-32-19.2-38.4-25.6-25.6-57.6-25.6-83.2 0L512 428.8 147.2 64C134.4 51.2 121.6 44.8 108.8 44.8c-19.2 0-32 6.4-44.8 19.2-12.8 12.8-19.2 25.6-19.2 44.8 0 12.8 6.4 32 19.2 38.4L428.8 512l-358.4 358.4c-25.6 25.6-25.6 57.6 0 83.2s57.6 25.6 83.2 0L512 595.2l364.8 364.8c12.8 12.8 25.6 19.2 44.8 19.2 12.8 0 32-6.4 44.8-19.2 12.8-12.8 19.2-25.6 19.2-44.8-6.4-12.8-12.8-25.6-25.6-38.4z"
    p-id="1449"></path>
</svg>