<?xml version="1.0" standalone="no"?><!DOCTYPE svg PUBLIC "-//W3C//DTD SVG 1.1//EN"
  "http://www.w3.org/Graphics/SVG/1.1/DTD/svg11.dtd">
<svg t="1709957823371" class="icon" viewBox="0 0 1024 1024" version="1.1" xmlns="http://www.w3.org/2000/svg" p-id="1583"
     xmlns:xlink="http://www.w3.org/1999/xlink" width="200" height="200">
  <path
    d="M896 0H339.2c-57.6 0-102.4 51.2-102.4 108.8v198.4h108.8V108.8h556.8v499.2h-108.8v108.8H896c57.6 0 108.8-51.2 108.8-108.8V108.8C1004.8 51.2 953.6 0 896 0z m0 665.6v-57.6 57.6z"
    p-id="1584"></path>
  <path
    d="M684.8 1024H128c-57.6 0-108.8-51.2-108.8-108.8V416c0-57.6 51.2-108.8 108.8-108.8h556.8c57.6 0 108.8 51.2 108.8 108.8v499.2c-6.4 57.6-51.2 108.8-108.8 108.8z m0-108.8v51.2-51.2z m0-499.2H128v499.2h556.8V416z"
    p-id="1585"></path>
</svg>