<?xml version="1.0" standalone="no"?><!DOCTYPE svg PUBLIC "-//W3C//DTD SVG 1.1//EN"
  "http://www.w3.org/Graphics/SVG/1.1/DTD/svg11.dtd">
<svg t="1709957832434" class="icon" viewBox="0 0 1024 1024" version="1.1" xmlns="http://www.w3.org/2000/svg" p-id="1719"
     xmlns:xlink="http://www.w3.org/1999/xlink" width="200" height="200">
  <path
    d="M908.8 992H115.2c-64 0-115.2-51.2-115.2-115.2V153.6C0 89.6 51.2 38.4 115.2 38.4h793.6c64 0 115.2 51.2 115.2 115.2v723.2c0 57.6-51.2 115.2-115.2 115.2zM115.2 140.8c-6.4 0-6.4 6.4-6.4 6.4v723.2c0 6.4 6.4 6.4 6.4 6.4h793.6c6.4 0 6.4-6.4 6.4-6.4V153.6c0-6.4-6.4-6.4-6.4-6.4H115.2z"
    p-id="1720"></path>
</svg>